<svg xmlns="http://www.w3.org/2000/svg" width="200" height="400">
  <defs>
    <linearGradient id="bambooGradient" x1="0%" y1="0%" x2="0%" y2="100%">
      <stop offset="0%" style="stop-color:#7dc8d6;stop-opacity:0.3"/>
      <stop offset="50%" style="stop-color:#6fbbd3;stop-opacity:0.4"/>
      <stop offset="100%" style="stop-color:#4a9fb5;stop-opacity:0.3"/>
    </linearGradient>
  </defs>

  <!-- 竹の節々 -->
  <g id="bambooStalk">
    <!-- 竹の幹 -->
    <rect x="20" y="0" width="8" height="400" fill="url(#bambooGradient)"/>
    <rect x="60" y="0" width="10" height="400" fill="url(#bambooGradient)" opacity="0.8"/>
    <rect x="110" y="0" width="7" height="400" fill="url(#bambooGradient)" opacity="0.6"/>
    <rect x="150" y="0" width="9" height="400" fill="url(#bambooGradient)" opacity="0.7"/>

    <!-- 節 -->
    <g stroke="#4a9fb5" stroke-width="0.5" opacity="0.5">
      <line x1="20" y1="50" x2="28" y2="50"/>
      <line x1="20" y1="100" x2="28" y2="100"/>
      <line x1="20" y1="150" x2="28" y2="150"/>
      <line x1="20" y1="200" x2="28" y2="200"/>
      <line x1="20" y1="250" x2="28" y2="250"/>
      <line x1="20" y1="300" x2="28" y2="300"/>
      <line x1="20" y1="350" x2="28" y2="350"/>

      <line x1="60" y1="30" x2="70" y2="30"/>
      <line x1="60" y1="80" x2="70" y2="80"/>
      <line x1="60" y1="130" x2="70" y2="130"/>
      <line x1="60" y1="180" x2="70" y2="180"/>
      <line x1="60" y1="230" x2="70" y2="230"/>
      <line x1="60" y1="280" x2="70" y2="280"/>
      <line x1="60" y1="330" x2="70" y2="330"/>
      <line x1="60" y1="380" x2="70" y2="380"/>

      <line x1="110" y1="60" x2="117" y2="60"/>
      <line x1="110" y1="110" x2="117" y2="110"/>
      <line x1="110" y1="160" x2="117" y2="160"/>
      <line x1="110" y1="210" x2="117" y2="210"/>
      <line x1="110" y1="260" x2="117" y2="260"/>
      <line x1="110" y1="310" x2="117" y2="310"/>
      <line x1="110" y1="360" x2="117" y2="360"/>

      <line x1="150" y1="40" x2="159" y2="40"/>
      <line x1="150" y1="90" x2="159" y2="90"/>
      <line x1="150" y1="140" x2="159" y2="140"/>
      <line x1="150" y1="190" x2="159" y2="190"/>
      <line x1="150" y1="240" x2="159" y2="240"/>
      <line x1="150" y1="290" x2="159" y2="290"/>
      <line x1="150" y1="340" x2="159" y2="340"/>
      <line x1="150" y1="390" x2="159" y2="390"/>
    </g>

    <!-- 竹の葉 -->
    <g fill="#6fbbd3" opacity="0.3">
      <path d="M28,80 Q35,75 40,80 Q35,85 28,80"/>
      <path d="M28,130 Q35,125 40,130 Q35,135 28,130"/>
      <path d="M70,110 Q77,105 82,110 Q77,115 70,110"/>
      <path d="M70,200 Q77,195 82,200 Q77,205 70,200"/>
      <path d="M117,140 Q124,135 129,140 Q124,145 117,140"/>
      <path d="M117,240 Q124,235 129,240 Q124,245 117,240"/>
      <path d="M159,170 Q166,165 171,170 Q166,175 159,170"/>
      <path d="M159,270 Q166,265 171,270 Q166,275 159,270"/>
    </g>
  </g>
</svg>